<svg id="eocfySLwJFd1" xmlns="http://www.w3.org/2000/svg" xmlns:xlink="http://www.w3.org/1999/xlink" viewBox="0 0 256 257" shape-rendering="geometricPrecision" text-rendering="geometricPrecision" project-id="323407ad995e4e4a99e5d63fe8705ed5" export-id="4179442fbd0146f281dfcb31d77df4f5" cached="false"><g transform="translate(-136.567046-46.691122)"><path d="M160.246188,60.822264v161.563612l212.437486.13482v-161.48835l-212.437486-.210082Z" stroke="#000" stroke-width="1.03"/><path d="M167.84928,67.588592l-.506046,147.850948h198.050053v-147.850948h-197.544007Z" fill="#fff" stroke="#000" stroke-width="1.03"/><path d="M167.84928,91.673295l197.544007-.2561v8.067143h-197.544007v-7.811043Z" stroke="#000" stroke-width="1.03"/><ellipse rx="4.93068" ry="4.78276" transform="translate(191.177394 79.454274)" stroke-width="0"/><ellipse rx="4.93068" ry="4.78276" transform="translate(210.308434 79.454274)" stroke-width="0"/><ellipse rx="4.93068" ry="4.78276" transform="translate(229.439474 78.862592)" stroke-width="0"/><path d="M282.762948,120.369246L262.157375,137.53263c-1.100354,1.001111-1.026448,2.989656-.000001,3.981436l20.605574,17.403969c2.75456.490912,6.192066-.845205,5.566865-4.944282l-15.920589-14.140648l15.920589-14.239533c1.118419-3.680391-1.964638-5.992929-5.566865-5.224326Z" transform="translate(.000001 0)" stroke="#3f5787" stroke-width="1.03"/><path d="M282.762948,120.369246L262.157375,137.53263c-1.100354,1.001111-1.026448,2.989656-.000001,3.981436l20.605574,17.403969c2.75456.490912,6.192066-.845205,5.566865-4.944282l-15.920589-14.140648l15.920589-14.239533c1.118419-3.680391-1.964638-5.992929-5.566865-5.224326Z" transform="matrix(-1 0 0 1 615.969113 0)" stroke="#000" stroke-width="1.03"/><path d="M297.452828,114.596911c.732833-3.622556,4.55262-4.526142,7.57853-1.974687l13.682552,49.132411c-1.276834,3.965607-5.367669,4.920434-8.16874,1.968876l-13.092342-49.1266Z" transform="translate(0 0.000001)" stroke="#000" stroke-width="1.03"/></g><g transform="translate(-136.567045-46.691122)"><path d="M180.36034,147.38034c3.067-1.98882,9.47053-5.00913,12.89069-5.92351l4.23108-10.43667l22.42473-.21155l4.48495,12.16097c3.39387.15647,10.13081,2.493,13.53946,4.41077l10.5777-4.41077l15.57038,15.52459-4.59778,11.38469c2.07095,3.16422,5.17605,9.3254,6.06455,12.35149l10.93029,5.83889v21.66313l-11.56495,4.82343c-.92056,3.37164-3.58948,9.8875-5.42989,13.03173l4.59778,10.66232-15.57038,16.58584-10.5777-4.48495c-3.34095,1.79474-10.10637,4.5622-13.53946,5.50041l-4.48495,10.49308-22.42473-.50773-4.23108-9.98535c-4.05268-1.22926-11.20824-3.90846-14.21643-5.50041l-10.12552,4.48495-15.86958-16.58584l4.48488-10.66232c-1.92859-3.00309-4.34722-9.52673-4.89173-13.03173l-11.59316-4.82343c0-14.38568,0-21.60672,0-21.66313s3.86439-2.00271,11.59316-5.83889c.59906-3.40452,2.97059-9.6015,4.89173-12.35149l-4.48488-11.38469l15.86958-15.52459l11.45126,4.41076Z" stroke="#020202" stroke-width="1.03"/><path d="M180.360336,156.43582l-9.743691-4.1519-8.530269,8.228312l3.831476,9.366623c-2.989399,4.805004-6.794978,14.223291-7.394736,18.85322l-9.598936,3.555162-.142206,12.016445l9.741142,3.768471c1.402295,5.548357,4.937334,15.366922,7.394736,19.515382l-3.831476,9.423632l7.955463,8.319077l8.992757-4.621709c4.687408,2.391404,14.597303,6.369382,19.80405,8.034664l4.052884,9.883349l11.660929-.071103l3.981781-9.812246c5.022799-1.457269,14.60899-5.549475,19.397003-8.034664l9.257597,4.621709l7.892459-8.319077-4.195091-9.423632c2.715924-4.515393,6.75634-14.258656,8.034665-19.515382l9.243419-3.768471v-12.016445l-9.243419-3.555162c-1.026453-4.86962-5.179168-14.221017-8.034665-18.85322l4.195091-9.366623-7.892459-8.228312-9.257597,3.740671c-3.983532-2.481265-13.471724-6.246736-18.899281-7.608045l-4.479503-9.45673-11.660929-.142206-4.052884,9.812245c-5.053992,1.01845-14.263879,4.970213-18.47831,7.805965Z" transform="translate(.000001 0)" fill="#fff" stroke="#000" stroke-width="1.03"/><ellipse rx="29.676389" ry="30.248661" transform="matrix(1.302209 0 0 1.279519 208.757941 198.576423)" fill="#070707" stroke-width="0"/><ellipse rx="24.659995" ry="25.602905" transform="matrix(1.244645 0 0 1.20006 208.757941 198.576423)" fill="#fbfbfb" stroke-width="0"/></g><g transform="matrix(.788925 0 0 0.771455 33.408428 37.396263)"><path d="M180.36034,147.38034c3.067-1.98882,9.47053-5.00913,12.89069-5.92351l4.23108-10.43667l22.42473-.21155l4.48495,12.16097c3.39387.15647,10.13081,2.493,13.53946,4.41077l10.5777-4.41077l15.57038,15.52459-4.59778,11.38469c2.07095,3.16422,5.17605,9.3254,6.06455,12.35149l10.93029,5.83889v21.66313l-11.56495,4.82343c-.92056,3.37164-3.58948,9.8875-5.42989,13.03173l4.59778,10.66232-15.57038,16.58584-10.5777-4.48495c-3.34095,1.79474-10.10637,4.5622-13.53946,5.50041l-4.48495,10.49308-22.42473-.50773-4.23108-9.98535c-4.05268-1.22926-11.20824-3.90846-14.21643-5.50041l-10.12552,4.48495-15.86958-16.58584l4.48488-10.66232c-1.92859-3.00309-4.34722-9.52673-4.89173-13.03173l-11.59316-4.82343c0-14.38568,0-21.60672,0-21.66313s3.86439-2.00271,11.59316-5.83889c.59906-3.40452,2.97059-9.6015,4.89173-12.35149l-4.48488-11.38469l15.86958-15.52459l11.45126,4.41076Z" stroke="#020202" stroke-width="1.03"/><path d="M180.360336,156.43582l-9.743691-4.1519-8.530269,8.228312l3.831476,9.366623c-2.989399,4.805004-6.794978,14.223291-7.394736,18.85322l-9.598936,3.555162-.142206,12.016445l9.741142,3.768471c1.402295,5.548357,4.937334,15.366922,7.394736,19.515382l-3.831476,9.423632l7.955463,8.319077l8.992757-4.621709c4.687408,2.391404,14.597303,6.369382,19.80405,8.034664l4.052884,9.883349l11.660929-.071103l3.981781-9.812246c5.022799-1.457269,14.60899-5.549475,19.397003-8.034664l9.257597,4.621709l7.892459-8.319077-4.195091-9.423632c2.715924-4.515393,6.75634-14.258656,8.034665-19.515382l9.243419-3.768471v-12.016445l-9.243419-3.555162c-1.026453-4.86962-5.179168-14.221017-8.034665-18.85322l4.195091-9.366623-7.892459-8.228312-9.257597,3.740671c-3.983532-2.481265-13.471724-6.246736-18.899281-7.608045l-4.479503-9.45673-11.660929-.142206-4.052884,9.812245c-5.053992,1.01845-14.263879,4.970213-18.47831,7.805965Z" transform="translate(.000001 0)" fill="#fff" stroke="#000" stroke-width="1.03"/><ellipse rx="29.676389" ry="30.248661" transform="matrix(1.302209 0 0 1.279519 208.757941 198.576423)" fill="#070707" stroke-width="0"/><ellipse rx="24.659995" ry="25.602905" transform="matrix(1.244645 0 0 1.20006 208.757941 198.576423)" fill="#fbfbfb" stroke-width="0"/></g></svg>
